<svg width="52" height="31" viewBox="0 0 52 31" fill="none" xmlns="http://www.w3.org/2000/svg">
<path d="M8 26.2209V24.5417C8 22.389 9.68889 20.6667 11.9111 20.6667C14.5778 22.8195 17.2444 22.8195 19.9111 20.6667C22.1333 20.6667 24 22.389 24 24.5417V26.2209H8Z" fill="#6523D0"/>
<path d="M9.18379 21.2265C9.80601 20.839 10.5171 20.6237 11.2727 20.6237C13.9393 22.7765 16.606 22.7765 19.2727 20.6237C20.0282 20.6237 20.7393 20.839 21.3616 21.1834C21.8949 20.7959 22.3838 20.4084 22.7393 20.064C24.0282 18.7292 24.3838 17.1362 23.6282 15.414C22.5616 12.9598 22.2949 13.0029 22.1171 9.90286C22.1171 8.09453 20.6949 6.58758 18.8282 6.45841C18.8282 6.45841 17.6727 5.16675 15.2727 5.16675C12.4282 5.16675 9.85046 6.67369 9.18379 9.04175C8.51712 11.4529 9.31712 12.4001 8.60601 14.2084C7.80601 16.232 6.02823 17.8251 8.02823 20.1931C8.2949 20.4945 8.6949 20.882 9.18379 21.2265Z" fill="#A57939"/>
<path d="M11.1113 13.7777C11.1113 17.2222 13.2447 19.3319 15.9113 19.3319C18.578 19.3319 20.8891 17.2222 20.8891 13.7777C20.8891 12.0555 20.4447 11.1944 20.4447 11.1944L18.6669 9.47217C18.6669 9.47217 13.3336 10.3333 11.5558 11.1944C11.5558 11.1944 11.1113 12.0555 11.1113 13.7777Z" fill="#FADCBC"/>
<path d="M8 25.8335V24.4988C8 22.346 9.68889 20.6238 11.9111 20.6238C14.5778 22.7766 17.2444 22.7766 19.9111 20.6238C22.1333 20.6238 24 22.346 24 24.4988V25.8335" stroke="black" stroke-width="0.5" stroke-linecap="round" stroke-linejoin="round"/>
<path d="M18.6664 13.3472C18.6664 13.8208 18.2664 14.2083 17.7776 14.2083C17.2887 14.2083 16.8887 13.8208 16.8887 13.3472C16.8887 12.8736 17.2887 12.4861 17.7776 12.4861C18.2664 12.4861 18.6664 12.8736 18.6664 13.3472Z" fill="black"/>
<path d="M15.1113 13.3472C15.1113 13.8208 14.7113 14.2083 14.2224 14.2083C13.7335 14.2083 13.3335 13.8208 13.3335 13.3472C13.3335 12.8736 13.7335 12.4861 14.2224 12.4861C14.7113 12.4861 15.1113 12.8736 15.1113 13.3472Z" fill="black"/>
<path d="M14.5781 16.4473C15.4226 16.8778 16.4003 16.8778 17.2448 16.4473" stroke="black" stroke-width="0.5" stroke-linecap="round" stroke-linejoin="round"/>
<path d="M8.96667 20C7.2415 17.3529 8.19035 16.3382 9.0098 14.2647C9.69987 12.4118 8.92354 11.3971 9.57048 8.97059C10.2174 6.54412 12.7189 5 15.4792 5C17.8082 5 18.9295 6.32353 18.9295 6.32353C20.741 6.5 22.1211 8.04412 22.1211 9.85294C22.2936 13.0294 22.5524 13.0294 23.5875 15.5C24.3638 17.3088 24.0188 18.5 22.768 19.9559" stroke="black" stroke-width="0.5" stroke-linecap="round" stroke-linejoin="round"/>
<path d="M48 24C49.1 24 49.99 23.1 49.99 22L50 12C50 10.9 49.1 10 48 10H32C30.9 10 30 10.9 30 12V22C30 23.1 30.9 24 32 24H28V26H52V24H48ZM32 12H48V22H32V12Z" fill="black"/>
</svg>
