<svg width="256" height="140" viewBox="0 0 256 140" fill="none" xmlns="http://www.w3.org/2000/svg">
<path d="M39.3846 118.417V110.833C39.3846 101.112 47.6992 93.3335 58.6393 93.3335C71.7676 103.056 84.8955 103.056 98.0239 93.3335C108.964 93.3335 118.154 101.112 118.154 110.833V118.417H39.3846Z" fill="#A846A0"/>
<path d="M45.2125 95.8616C48.2758 94.1116 51.7765 93.1393 55.4964 93.1393C68.6243 102.862 81.7526 102.862 94.881 93.1393C98.6004 93.1393 102.101 94.1116 105.165 95.667C107.79 93.917 110.197 92.167 111.947 90.6116C118.293 84.5835 120.043 77.3893 116.323 69.6116C111.073 58.5281 109.76 58.7228 108.884 44.7226C108.884 36.5559 101.883 29.7504 92.6927 29.167C92.6927 29.167 87.0041 23.3337 75.1887 23.3337C61.185 23.3337 48.4946 30.1392 45.2125 40.8337C41.9305 51.7228 45.8689 56.0005 42.3681 64.167C38.4296 73.3058 29.6775 80.5005 39.5236 91.1946C40.8364 92.5558 42.8057 94.3058 45.2125 95.8616Z" fill="#A57939"/>
<path d="M54.7018 62.2219C54.7018 77.7777 65.2047 87.3053 78.3326 87.3053C91.4609 87.3053 102.839 77.7777 102.839 62.2219C102.839 54.4442 100.651 50.5554 100.651 50.5554L91.8986 42.7775C91.8986 42.7775 65.6423 46.6665 56.8901 50.5554C56.8901 50.5554 54.7018 54.4442 54.7018 62.2219Z" fill="#FADCBC"/>
<path d="M39.3846 116.667V110.64C39.3846 100.917 47.6992 93.1397 58.6393 93.1397C71.7676 102.862 84.8955 102.862 98.0239 93.1397C108.964 93.1397 118.154 100.917 118.154 110.64V116.667" stroke="black" stroke-width="0.5" stroke-linecap="round" stroke-linejoin="round"/>
<path d="M91.8961 60.2777C91.8961 62.4165 89.9269 64.1665 87.5205 64.1665C85.1136 64.1665 83.1444 62.4165 83.1444 60.2777C83.1444 58.1388 85.1136 56.3888 87.5205 56.3888C89.9269 56.3888 91.8961 58.1388 91.8961 60.2777Z" fill="black"/>
<path d="M74.3941 60.2777C74.3941 62.4165 72.4249 64.1665 70.018 64.1665C67.6111 64.1665 65.6418 62.4165 65.6418 60.2777C65.6418 58.1388 67.6111 56.3888 70.018 56.3888C72.4249 56.3888 74.3941 58.1388 74.3941 60.2777Z" fill="black"/>
<path d="M71.7691 74.2781C75.9266 76.2223 80.7399 76.2223 84.8975 74.2781" stroke="black" stroke-width="0.5" stroke-linecap="round" stroke-linejoin="round"/>
<path d="M44.1436 90.3226C35.6505 78.3679 40.3217 73.7854 44.3559 64.4212C47.7532 56.0533 43.9313 51.4708 47.1162 40.5123C50.3011 29.5541 62.6161 22.5806 76.2053 22.5806C87.6712 22.5806 93.1914 28.5579 93.1914 28.5579C102.11 29.3548 108.904 36.3283 108.904 44.4971C109.753 58.8424 111.027 58.8424 116.123 70C119.945 78.1688 118.246 83.5484 112.089 90.1234" stroke="black" stroke-width="0.5" stroke-linecap="round" stroke-linejoin="round"/>
<path d="M236.308 108.387C241.723 108.387 246.105 104.323 246.105 99.3548L246.154 54.1935C246.154 49.2258 241.723 45.1613 236.308 45.1613H157.538C152.123 45.1613 147.692 49.2258 147.692 54.1935V99.3548C147.692 104.323 152.123 108.387 157.538 108.387H137.846V117.419H256V108.387H236.308ZM157.538 54.1935H236.308V99.3548H157.538V54.1935Z" fill="black"/>
<path d="M44 106.845C44 106.65 44.0635 106.523 44.1904 106.464C44.3271 106.406 44.4736 106.376 44.6299 106.376C44.6592 106.376 44.7129 106.381 44.791 106.391C44.8789 106.401 44.9326 106.406 44.9521 106.406C44.9814 106.708 45.0107 107.075 45.04 107.504C45.0693 107.924 45.1035 108.383 45.1426 108.881C45.1816 109.37 45.2305 109.877 45.2891 110.405C45.3477 110.932 45.4307 111.45 45.5381 111.957C45.6455 112.456 45.7773 112.934 45.9336 113.393C46.0898 113.842 46.2803 114.233 46.5049 114.565C46.5537 114.653 46.5977 114.721 46.6367 114.77C46.6855 114.809 46.7295 114.843 46.7686 114.873C46.8174 114.892 46.8711 114.907 46.9297 114.916C46.9883 114.916 47.0615 114.916 47.1494 114.916C47.5498 114.916 47.9307 114.848 48.292 114.711C48.6631 114.575 49.0293 114.423 49.3906 114.257C49.752 114.091 50.1182 113.94 50.4893 113.803C50.8604 113.666 51.251 113.598 51.6611 113.598C51.749 113.598 51.8613 113.598 51.998 113.598C52.1348 113.588 52.2617 113.593 52.3789 113.613C52.4961 113.632 52.5986 113.681 52.6865 113.759C52.7744 113.837 52.8184 113.955 52.8184 114.111C52.8184 114.257 52.6865 114.418 52.4229 114.594C52.1592 114.76 51.8223 114.931 51.4121 115.107C51.002 115.273 50.5527 115.439 50.0645 115.605C49.5859 115.771 49.1221 115.917 48.6729 116.044C48.2334 116.171 47.8428 116.274 47.501 116.352C47.1592 116.42 46.9346 116.455 46.8271 116.455C46.4756 116.455 46.1631 116.337 45.8896 116.103C45.626 115.859 45.3916 115.537 45.1865 115.136C44.9912 114.726 44.8252 114.262 44.6885 113.745C44.5518 113.217 44.4395 112.67 44.3516 112.104C44.2637 111.538 44.1953 110.976 44.1465 110.419C44.0977 109.863 44.0635 109.345 44.0439 108.867C44.0244 108.388 44.0098 107.968 44 107.607C44 107.246 44 106.992 44 106.845ZM53.3896 112.382C53.3896 111.855 53.4531 111.328 53.5801 110.8C53.707 110.273 53.9072 109.799 54.1807 109.379C54.4639 108.959 54.8252 108.618 55.2646 108.354C55.7139 108.09 56.2559 107.958 56.8906 107.958C57.252 107.958 57.5693 108.027 57.8428 108.164C58.1162 108.29 58.3457 108.461 58.5312 108.676C58.7168 108.891 58.8535 109.145 58.9414 109.438C59.0391 109.721 59.0879 110.019 59.0879 110.331C59.0879 110.83 58.9707 111.313 58.7363 111.782C58.5117 112.25 58.2041 112.665 57.8135 113.027C57.4326 113.378 56.9932 113.647 56.4951 113.832C55.9971 114.008 55.4893 114.047 54.9717 113.95C54.9814 114.233 55.0742 114.462 55.25 114.638C55.4355 114.804 55.6553 114.931 55.9092 115.019C56.1631 115.107 56.4268 115.165 56.7002 115.195C56.9736 115.214 57.2178 115.224 57.4326 115.224C57.6572 115.224 57.8672 115.205 58.0625 115.165C58.2578 115.126 58.4531 115.082 58.6484 115.034C58.8438 114.985 59.0391 114.941 59.2344 114.902C59.4395 114.863 59.6543 114.843 59.8789 114.843C59.9668 114.843 60.0547 114.848 60.1426 114.858C60.2305 114.868 60.3135 114.892 60.3916 114.931C60.4697 114.96 60.5332 115.014 60.582 115.092C60.6309 115.161 60.6553 115.248 60.6553 115.356C60.6553 115.541 60.5869 115.698 60.4502 115.825C60.3135 115.942 60.1377 116.044 59.9229 116.132C59.7178 116.22 59.4883 116.289 59.2344 116.337C58.9805 116.376 58.7314 116.411 58.4873 116.44C58.2529 116.459 58.0332 116.469 57.8281 116.469C57.6328 116.479 57.4863 116.484 57.3887 116.484C56.7637 116.484 56.2021 116.386 55.7041 116.191C55.2061 115.986 54.7861 115.707 54.4443 115.356C54.1025 114.995 53.8389 114.565 53.6533 114.067C53.4775 113.559 53.3896 112.998 53.3896 112.382ZM54.9424 111.43C54.9424 111.772 54.9863 112.021 55.0742 112.177C55.1719 112.333 55.4014 112.412 55.7627 112.412C56.0166 112.412 56.2656 112.368 56.5098 112.28C56.7539 112.182 56.9736 112.05 57.1689 111.884C57.374 111.718 57.5352 111.523 57.6523 111.298C57.7695 111.074 57.8281 110.83 57.8281 110.566C57.8281 110.419 57.8135 110.268 57.7842 110.112C57.7646 109.956 57.7158 109.814 57.6377 109.687C57.5596 109.55 57.457 109.443 57.3301 109.365C57.2129 109.277 57.0566 109.233 56.8613 109.233C56.5684 109.233 56.2998 109.301 56.0557 109.438C55.8213 109.565 55.6211 109.736 55.4551 109.951C55.2891 110.156 55.1621 110.39 55.0742 110.654C54.9863 110.908 54.9424 111.166 54.9424 111.43ZM61.2412 109.072C61.2412 109.042 61.2461 109.018 61.2559 108.998C61.2559 108.979 61.2607 108.955 61.2705 108.925C61.3096 108.876 61.3682 108.813 61.4463 108.735C61.5244 108.657 61.5732 108.618 61.5928 108.618H64.5371C64.5371 108.51 64.5225 108.339 64.4932 108.105C64.4639 107.871 64.4346 107.612 64.4053 107.329C64.3857 107.045 64.3809 106.752 64.3906 106.45C64.4004 106.137 64.4395 105.859 64.5078 105.615C64.5859 105.361 64.7031 105.156 64.8594 104.999C65.0254 104.833 65.2549 104.75 65.5479 104.75C65.5479 105.737 65.6162 106.528 65.7529 107.123C65.8896 107.719 66.0703 108.178 66.2949 108.5C66.5293 108.823 66.793 109.033 67.0859 109.13C67.3789 109.228 67.6768 109.272 67.9795 109.262C68.292 109.243 68.5947 109.194 68.8877 109.116C69.1807 109.038 69.4395 108.984 69.6641 108.955C69.8984 108.925 70.084 108.95 70.2207 109.028C70.3574 109.096 70.4258 109.267 70.4258 109.54C70.4258 109.746 70.377 109.892 70.2793 109.98C70.1914 110.068 70.0156 110.136 69.752 110.185C69.6738 110.195 69.542 110.214 69.3564 110.244C69.1807 110.263 68.9805 110.283 68.7559 110.302C68.5312 110.322 68.292 110.346 68.0381 110.375C67.7842 110.395 67.5449 110.415 67.3203 110.434C67.0957 110.454 66.8906 110.468 66.7051 110.478C66.5195 110.478 66.3828 110.478 66.2949 110.478C66.2949 110.527 66.29 110.61 66.2803 110.727C66.2705 110.844 66.2656 110.922 66.2656 110.961C66.2656 111.391 66.334 111.811 66.4707 112.221C66.6074 112.622 66.7539 113.022 66.9102 113.422C67.0762 113.823 67.2275 114.223 67.3643 114.623C67.501 115.024 67.5693 115.439 67.5693 115.869C67.5693 115.947 67.5596 116.03 67.54 116.118C67.5303 116.196 67.501 116.269 67.4521 116.337C67.4131 116.396 67.3496 116.44 67.2617 116.469C67.1836 116.508 67.0713 116.503 66.9248 116.455C66.5537 116.357 66.2754 116.147 66.0898 115.825C65.9141 115.502 65.7822 115.122 65.6943 114.682C65.6064 114.233 65.5479 113.759 65.5186 113.261C65.4893 112.763 65.4404 112.299 65.3721 111.87C65.3135 111.43 65.2158 111.059 65.0791 110.756C64.9424 110.444 64.7227 110.253 64.4199 110.185L61.5928 109.54C61.5537 109.54 61.4951 109.501 61.417 109.423C61.3389 109.335 61.29 109.272 61.2705 109.233C61.2607 109.213 61.2559 109.189 61.2559 109.16C61.2461 109.14 61.2412 109.111 61.2412 109.072ZM73.7949 115.795C73.9512 115.688 74.1367 115.551 74.3516 115.385C74.5762 115.209 74.8008 115.024 75.0254 114.829C75.25 114.633 75.46 114.428 75.6553 114.213C75.8506 113.998 76.002 113.793 76.1094 113.598C76.2266 113.393 76.2852 113.203 76.2852 113.027C76.2852 112.851 76.1973 112.705 76.0215 112.587C75.709 112.587 75.3672 112.602 74.9961 112.631C74.625 112.651 74.2539 112.661 73.8828 112.661C73.5117 112.651 73.1504 112.617 72.7988 112.558C72.457 112.499 72.1494 112.392 71.876 112.236C71.6025 112.08 71.3828 111.86 71.2168 111.577C71.0605 111.284 70.9824 110.913 70.9824 110.463C70.9824 109.936 71.0801 109.462 71.2754 109.042C71.4805 108.613 71.749 108.237 72.0811 107.915C72.4131 107.582 72.7842 107.294 73.1943 107.05C73.6143 106.796 74.0342 106.581 74.4541 106.406C74.708 106.474 74.9424 106.596 75.1572 106.772C75.3721 106.948 75.5576 107.143 75.7139 107.358C75.6455 107.573 75.5088 107.739 75.3037 107.856C75.1084 107.973 74.8789 108.076 74.6152 108.164C74.3613 108.251 74.0928 108.344 73.8096 108.442C73.5264 108.54 73.2676 108.671 73.0332 108.837C72.8086 108.994 72.6182 109.204 72.4619 109.467C72.3057 109.721 72.2275 110.058 72.2275 110.478C72.2275 110.79 72.3057 111.02 72.4619 111.166C72.6182 111.313 72.8232 111.415 73.0771 111.474C73.3311 111.523 73.6191 111.542 73.9414 111.533C74.2637 111.513 74.5908 111.489 74.9229 111.459C75.2646 111.43 75.5967 111.415 75.9189 111.415C76.2412 111.406 76.5293 111.445 76.7832 111.533C77.0371 111.611 77.2373 111.743 77.3838 111.928C77.54 112.114 77.6182 112.387 77.6182 112.748C77.6182 112.905 77.5645 113.105 77.457 113.349C77.3594 113.593 77.2227 113.857 77.0469 114.14C76.8809 114.414 76.6807 114.687 76.4463 114.96C76.2217 115.234 75.9824 115.483 75.7285 115.707C75.4844 115.922 75.2354 116.103 74.9814 116.249C74.7373 116.386 74.5078 116.455 74.293 116.455C74.0879 116.455 73.9512 116.381 73.8828 116.235C73.8242 116.088 73.7949 115.942 73.7949 115.795ZM84.957 111.43C84.957 111.098 85.001 110.737 85.0889 110.346C85.1865 109.956 85.3184 109.565 85.4844 109.174C85.6504 108.774 85.8506 108.388 86.085 108.017C86.3193 107.636 86.583 107.304 86.876 107.021C87.1689 106.728 87.4863 106.498 87.8281 106.332C88.1699 106.157 88.5312 106.069 88.9121 106.069C89.2246 106.069 89.5176 106.113 89.791 106.201C90.0645 106.279 90.2988 106.401 90.4941 106.567C90.6895 106.733 90.8408 106.943 90.9482 107.197C91.0654 107.441 91.124 107.734 91.124 108.076C90.9092 108.076 90.7334 108.022 90.5967 107.915C90.4697 107.797 90.3477 107.67 90.2305 107.534C90.123 107.397 90.001 107.275 89.8643 107.167C89.7373 107.06 89.5713 107.006 89.3662 107.006C89.0635 107.006 88.7705 107.084 88.4873 107.241C88.2139 107.397 87.9551 107.607 87.7109 107.871C87.4766 108.134 87.2666 108.432 87.0811 108.764C86.9053 109.096 86.749 109.433 86.6123 109.775C86.4854 110.107 86.3828 110.434 86.3047 110.756C86.2363 111.079 86.2021 111.357 86.2021 111.591C86.2021 112.099 86.2754 112.578 86.4219 113.027C86.5781 113.466 86.7979 113.852 87.0811 114.184C87.3643 114.506 87.7158 114.76 88.1357 114.946C88.5557 115.131 89.0342 115.224 89.5713 115.224C89.9131 115.224 90.2354 115.175 90.5381 115.078C90.8506 114.97 91.1484 114.858 91.4316 114.741C91.7246 114.614 92.0127 114.497 92.2959 114.389C92.5791 114.282 92.8623 114.228 93.1455 114.228C93.1846 114.228 93.2383 114.233 93.3066 114.243C93.3848 114.243 93.4531 114.252 93.5117 114.272C93.5801 114.291 93.6387 114.326 93.6875 114.374C93.7363 114.414 93.7607 114.477 93.7607 114.565C93.7607 114.916 93.624 115.214 93.3506 115.458C93.0869 115.703 92.7695 115.903 92.3984 116.059C92.0273 116.206 91.6416 116.313 91.2412 116.381C90.8408 116.45 90.5137 116.484 90.2598 116.484C89.5176 116.484 88.8242 116.367 88.1797 116.132C87.5352 115.888 86.9736 115.546 86.4951 115.107C86.0166 114.667 85.6406 114.14 85.3672 113.525C85.0938 112.9 84.957 112.202 84.957 111.43ZM94.376 113.481C94.376 112.875 94.5176 112.314 94.8008 111.796C95.084 111.269 95.4551 110.82 95.9141 110.449C96.3828 110.068 96.9053 109.77 97.4814 109.555C98.0674 109.34 98.6582 109.233 99.2539 109.233C99.5859 109.233 99.8789 109.34 100.133 109.555C100.396 109.77 100.616 110.034 100.792 110.346C100.968 110.649 101.1 110.971 101.188 111.313C101.285 111.655 101.334 111.953 101.334 112.206C101.334 112.753 101.202 113.286 100.938 113.803C100.675 114.311 100.333 114.765 99.9131 115.165C99.4932 115.556 99.0195 115.873 98.4922 116.118C97.9648 116.362 97.4375 116.484 96.9102 116.484C96.4414 116.484 96.0459 116.406 95.7236 116.249C95.4014 116.083 95.1426 115.869 94.9473 115.605C94.752 115.331 94.6055 115.014 94.5078 114.653C94.4199 114.282 94.376 113.891 94.376 113.481ZM95.6211 113.627C95.6211 113.881 95.6406 114.106 95.6797 114.301C95.7285 114.487 95.8066 114.648 95.9141 114.785C96.0312 114.921 96.1826 115.029 96.3682 115.107C96.5537 115.175 96.7832 115.209 97.0566 115.209C97.418 115.209 97.7793 115.112 98.1406 114.916C98.502 114.711 98.8242 114.457 99.1074 114.155C99.4004 113.842 99.6348 113.5 99.8105 113.129C99.9863 112.758 100.074 112.397 100.074 112.045C100.074 111.889 100.06 111.718 100.03 111.533C100.001 111.347 99.9521 111.176 99.8838 111.02C99.8154 110.864 99.7178 110.732 99.5908 110.624C99.4639 110.517 99.3027 110.463 99.1074 110.463C98.9316 110.463 98.7217 110.522 98.4775 110.639C98.2432 110.756 97.9941 110.908 97.7305 111.093C97.4766 111.279 97.2227 111.489 96.9688 111.723C96.7246 111.957 96.5 112.192 96.2949 112.426C96.0898 112.661 95.9238 112.885 95.7969 113.1C95.6797 113.315 95.6211 113.491 95.6211 113.627ZM101.583 114.726C101.583 114.16 101.725 113.657 102.008 113.217C102.291 112.778 102.643 112.397 103.062 112.075C103.482 111.743 103.937 111.464 104.425 111.24C104.913 111.005 105.367 110.815 105.787 110.668C106.207 110.512 106.559 110.39 106.842 110.302C107.125 110.205 107.267 110.126 107.267 110.068C107.267 109.726 107.247 109.394 107.208 109.072C107.179 108.74 107.145 108.408 107.105 108.076C107.066 107.744 107.027 107.416 106.988 107.094C106.959 106.762 106.944 106.435 106.944 106.113V105.161C107.345 105.014 107.628 105.029 107.794 105.205C107.97 105.38 107.999 105.683 107.882 106.113C107.921 106.328 107.975 106.665 108.043 107.123C108.111 107.582 108.185 108.1 108.263 108.676C108.351 109.252 108.438 109.858 108.526 110.493C108.624 111.127 108.712 111.738 108.79 112.324C108.878 112.9 108.951 113.417 109.01 113.876C109.068 114.326 109.112 114.663 109.142 114.887C109.151 114.936 109.161 115.034 109.171 115.18C109.181 115.317 109.186 115.468 109.186 115.634C109.195 115.79 109.2 115.937 109.2 116.074C109.21 116.21 109.215 116.308 109.215 116.367C108.844 116.367 108.59 116.352 108.453 116.323C108.326 116.293 108.243 116.235 108.204 116.147C108.175 116.059 108.16 115.932 108.16 115.766C108.16 115.6 108.111 115.371 108.014 115.078C107.652 115.361 107.311 115.595 106.988 115.781C106.666 115.966 106.344 116.118 106.021 116.235C105.699 116.342 105.372 116.415 105.04 116.455C104.718 116.503 104.371 116.528 104 116.528C103.688 116.528 103.385 116.503 103.092 116.455C102.809 116.396 102.555 116.298 102.33 116.162C102.105 116.025 101.925 115.839 101.788 115.605C101.651 115.371 101.583 115.078 101.583 114.726ZM102.857 114.418C102.857 114.575 102.892 114.702 102.96 114.799C103.028 114.897 103.116 114.98 103.224 115.048C103.331 115.117 103.443 115.165 103.561 115.195C103.688 115.214 103.81 115.224 103.927 115.224C104.269 115.224 104.635 115.161 105.025 115.034C105.426 114.897 105.792 114.711 106.124 114.477C106.466 114.233 106.744 113.945 106.959 113.613C107.184 113.281 107.296 112.919 107.296 112.529C107.296 112.226 107.242 112.016 107.135 111.899C107.027 111.782 106.822 111.723 106.52 111.723C106.207 111.723 105.841 111.796 105.421 111.943C105.011 112.089 104.61 112.285 104.22 112.529C103.839 112.773 103.517 113.061 103.253 113.393C102.989 113.715 102.857 114.057 102.857 114.418ZM110.079 112.382C110.079 111.855 110.143 111.328 110.27 110.8C110.396 110.273 110.597 109.799 110.87 109.379C111.153 108.959 111.515 108.618 111.954 108.354C112.403 108.09 112.945 107.958 113.58 107.958C113.941 107.958 114.259 108.027 114.532 108.164C114.806 108.29 115.035 108.461 115.221 108.676C115.406 108.891 115.543 109.145 115.631 109.438C115.729 109.721 115.777 110.019 115.777 110.331C115.777 110.83 115.66 111.313 115.426 111.782C115.201 112.25 114.894 112.665 114.503 113.027C114.122 113.378 113.683 113.647 113.185 113.832C112.687 114.008 112.179 114.047 111.661 113.95C111.671 114.233 111.764 114.462 111.939 114.638C112.125 114.804 112.345 114.931 112.599 115.019C112.853 115.107 113.116 115.165 113.39 115.195C113.663 115.214 113.907 115.224 114.122 115.224C114.347 115.224 114.557 115.205 114.752 115.165C114.947 115.126 115.143 115.082 115.338 115.034C115.533 114.985 115.729 114.941 115.924 114.902C116.129 114.863 116.344 114.843 116.568 114.843C116.656 114.843 116.744 114.848 116.832 114.858C116.92 114.868 117.003 114.892 117.081 114.931C117.159 114.96 117.223 115.014 117.271 115.092C117.32 115.161 117.345 115.248 117.345 115.356C117.345 115.541 117.276 115.698 117.14 115.825C117.003 115.942 116.827 116.044 116.612 116.132C116.407 116.22 116.178 116.289 115.924 116.337C115.67 116.376 115.421 116.411 115.177 116.44C114.942 116.459 114.723 116.469 114.518 116.469C114.322 116.479 114.176 116.484 114.078 116.484C113.453 116.484 112.892 116.386 112.394 116.191C111.896 115.986 111.476 115.707 111.134 115.356C110.792 114.995 110.528 114.565 110.343 114.067C110.167 113.559 110.079 112.998 110.079 112.382ZM111.632 111.43C111.632 111.772 111.676 112.021 111.764 112.177C111.861 112.333 112.091 112.412 112.452 112.412C112.706 112.412 112.955 112.368 113.199 112.28C113.443 112.182 113.663 112.05 113.858 111.884C114.063 111.718 114.225 111.523 114.342 111.298C114.459 111.074 114.518 110.83 114.518 110.566C114.518 110.419 114.503 110.268 114.474 110.112C114.454 109.956 114.405 109.814 114.327 109.687C114.249 109.55 114.146 109.443 114.02 109.365C113.902 109.277 113.746 109.233 113.551 109.233C113.258 109.233 112.989 109.301 112.745 109.438C112.511 109.565 112.311 109.736 112.145 109.951C111.979 110.156 111.852 110.39 111.764 110.654C111.676 110.908 111.632 111.166 111.632 111.43Z" fill="#23CECB"/>
</svg>
