<svg width="23" height="27" viewBox="0 0 23 27" fill="none" xmlns="http://www.w3.org/2000/svg">
<path fill-rule="evenodd" clip-rule="evenodd" d="M16.4258 0.27L22.7125 6.63429L23 7.32857V26.0357L22.0417 27H0.958333L0 26.0357V0.964286L0.958333 0H15.755L16.4258 0.27ZM15.3333 7.71429H21.0833L15.3333 1.92857V7.71429ZM1.91667 1.92857V25.0714H21.0833V9.64286H14.375L13.4167 8.67857V1.92857H1.91667ZM5.86883 16.4565L9.35142 12.9311L7.9925 11.5714L3.83333 15.7738V17.1373L7.99442 21.33L9.3495 19.9665L5.86883 16.4565ZM13.0333 12.9484L14.375 11.5811L18.5706 15.7757V17.1431L14.375 21.3339L13.0238 19.9665L16.5332 16.4565L13.0333 12.9484Z" fill="#A846A0"/>
</svg>
