<svg width="141" height="143" viewBox="0 0 141 143" fill="none" xmlns="http://www.w3.org/2000/svg">
<rect y="7.57616" width="130.683" height="135.424" rx="65.3415" fill="#5C4DCE"/>
<path d="M22 51.8438C24.0312 50.8021 25.9323 50.0469 27.7031 49.5781C29.526 49.0573 31.3229 48.7188 33.0938 48.5625C34.9167 48.3542 36.7396 48.25 38.5625 48.25C40.4375 48.25 42.4688 48.25 44.6562 48.25C45.0729 48.25 45.776 48.276 46.7656 48.3281C47.8073 48.3281 48.901 48.3281 50.0469 48.3281C51.2448 48.3281 52.3385 48.3281 53.3281 48.3281C54.3177 48.3281 55.0208 48.3281 55.4375 48.3281C56.0104 48.5365 56.4531 48.901 56.7656 49.4219C57.0781 49.9427 57.3125 50.4896 57.4688 51.0625C57.625 51.6354 57.7292 52.2344 57.7812 52.8594C57.8333 53.4323 57.8594 53.875 57.8594 54.1875H32.0781V70.9844H60.0469C60.0469 72.7552 59.5 74.1615 58.4062 75.2031C57.3125 76.1927 55.9323 76.974 54.2656 77.5469C52.651 78.1198 50.8281 78.5104 48.7969 78.7188C46.7656 78.875 44.8385 78.9531 43.0156 78.9531C41.1927 78.901 39.5781 78.8229 38.1719 78.7188C36.7656 78.6146 35.8281 78.5625 35.3594 78.5625V80.2031C35.3594 82.3906 35.8802 84.474 36.9219 86.4531C37.9635 88.3802 39.1094 90.2552 40.3594 92.0781C41.6615 93.901 42.8333 95.6979 43.875 97.4688C44.9688 99.2396 45.5156 101.036 45.5156 102.859C45.5156 104.005 45.2812 105.021 44.8125 105.906C44.3438 106.74 43.4844 107.156 42.2344 107.156C40.9323 107.156 39.6302 106.479 38.3281 105.125C37.0781 103.771 35.8542 101.974 34.6562 99.7344C33.4583 97.4427 32.3125 94.8385 31.2188 91.9219C30.1771 88.9531 29.1615 85.8802 28.1719 82.7031C27.2344 79.474 26.375 76.2969 25.5938 73.1719C24.8646 69.9948 24.2396 67.0521 23.7188 64.3438C23.1979 61.5833 22.7812 59.1615 22.4688 57.0781C22.1562 54.9948 22 53.4844 22 52.5469V51.8438ZM63.7188 52.9375C63.7188 51.9479 63.6927 50.8802 63.6406 49.7344C63.5885 48.5885 63.6667 47.5208 63.875 46.5312C64.1354 45.5417 64.5521 44.7344 65.125 44.1094C65.75 43.4323 66.7396 43.0938 68.0938 43.0938C69.0833 44.4479 69.7083 46.1406 69.9688 48.1719C70.2812 50.151 70.4896 52.2604 70.5938 54.5C70.6979 56.6875 70.8021 58.875 70.9062 61.0625C71.0625 63.25 71.5052 65.1771 72.2344 66.8438C72.2865 67.0521 72.5208 67.3646 72.9375 67.7812C73.4062 68.1458 73.7188 68.3802 73.875 68.4844C75.4375 67.1302 76.8438 65.724 78.0938 64.2656C79.3958 62.8073 80.6719 61.401 81.9219 60.0469C83.1719 58.6406 84.4219 57.3125 85.6719 56.0625C86.9219 54.8125 88.276 53.7188 89.7344 52.7812C91.2448 51.8438 92.9115 51.1146 94.7344 50.5938C96.6094 50.0208 98.7188 49.7344 101.062 49.7344C101.062 50.9844 100.62 52.2344 99.7344 53.4844C98.849 54.7344 97.7292 56.0104 96.375 57.3125C95.0208 58.5625 93.5365 59.8646 91.9219 61.2188C90.3073 62.5208 88.7448 63.875 87.2344 65.2812C85.724 66.6354 84.3698 68.0156 83.1719 69.4219C81.974 70.776 81.1146 72.1562 80.5938 73.5625C81.4792 73.7708 82.9375 74.2917 84.9688 75.125C87.0521 75.9062 89.3958 76.8958 92 78.0938C94.6562 79.2396 97.3906 80.4896 100.203 81.8438C103.016 83.1979 105.594 84.5521 107.938 85.9062C110.281 87.2083 112.182 88.4583 113.641 89.6562C115.151 90.8021 115.906 91.7396 115.906 92.4688C115.906 92.625 115.906 92.9635 115.906 93.4844C115.906 93.9531 115.854 94.4479 115.75 94.9688C115.698 95.4896 115.542 95.9583 115.281 96.375C115.021 96.7396 114.604 96.9219 114.031 96.9219C111.844 96.8698 109.786 96.4792 107.859 95.75C105.932 94.9688 104.057 94.0312 102.234 92.9375C100.411 91.7917 98.5885 90.6198 96.7656 89.4219C94.9948 88.1719 93.1719 87 91.2969 85.9062C89.4219 84.7604 87.4688 83.849 85.4375 83.1719C83.4583 82.4427 81.2969 82.026 78.9531 81.9219C78.1719 83.1719 77.8333 84.3958 77.9375 85.5938C78.0417 86.7396 78.3802 87.9115 78.9531 89.1094C79.5781 90.2552 80.3073 91.4531 81.1406 92.7031C81.974 93.901 82.7031 95.1771 83.3281 96.5312C83.9531 97.8333 84.3698 99.2135 84.5781 100.672C84.7865 102.13 84.5521 103.667 83.875 105.281C83.7708 105.438 83.5625 105.62 83.25 105.828C82.9896 105.984 82.6771 106.167 82.3125 106.375C82 106.583 81.6615 106.74 81.2969 106.844C80.9323 106.948 80.6979 107 80.5938 107C79.9167 107 79.1615 106.349 78.3281 105.047C77.5469 103.745 76.6875 101.974 75.75 99.7344C74.8646 97.4948 73.9271 94.9427 72.9375 92.0781C72 89.1615 71.0625 86.1667 70.125 83.0938C69.2396 79.9688 68.4062 76.8438 67.625 73.7188C66.8958 70.5417 66.2188 67.599 65.5938 64.8906C65.0208 62.1302 64.5521 59.7083 64.1875 57.625C63.875 55.5417 63.7188 53.9792 63.7188 52.9375Z" fill="#F6F8FF"/>
</svg>
